# xmcd CD database file
#
# Track frame offsets:
#	150
#	11292
#	23545
#	38295
#	49930
#	63935
#	79500
#	93914
#	106225
#	116381
#	128971
#	142037
#
# Disc length: 2061 seconds
#
# Revision: 0
# Processed by: cddbd v1.5.2PL0 Copyright (c) Steve Scherf et al.
# Submitted via: CDex 1.70beta2
#
DISCID=85080b0c
DTITLE=Johnny Smith - Moonlight in Vermont
DYEAR=1900
DGENRE=Jazz
TTITLE0=Where or When
TTITLE1=Tabu
TTITLE2=Moonlight in Vermont
TTITLE3=Jaguar
TTITLE4=Stars Fell on Alabama
TTITLE5=Tendrly
TTITLE6=A Ghost of a Chance
TTITLE7=Vilia
TTITLE8=Cavu
TTITLE9=I'll Be Around
TTITLE10=Yesterdays
TTITLE11=Cherokee
EXTD=
EXTT0=
EXTT1=
EXTT2=
EXTT3=
EXTT4=
EXTT5=
EXTT6=
EXTT7=
EXTT8=
EXTT9=
EXTT10=
EXTT11=
PLAYORDER=
